<?xml version="1.0" encoding="UTF-8"?><svg id="Layer_2" xmlns="http://www.w3.org/2000/svg" viewBox="0 0 373.52 53.56"><g id="Layer_1-2"><g id="Group_100"><g id="Group_107"><g id="ADB" isolation="isolate"><g isolation="isolate"><path d="M108.95,53.08c-.29-.92-.61-1.85-.95-2.82-.34-.96-.67-1.92-1.01-2.88h-10.29c-.33.96-.67,1.92-1,2.89-.33.97-.65,1.9-.93,2.81h-6.16c.99-2.84,1.93-5.46,2.82-7.87.89-2.41,1.76-4.67,2.61-6.8s1.69-4.15,2.52-6.06c.83-1.91,1.68-3.78,2.57-5.61h5.62c.86,1.82,1.72,3.69,2.56,5.61.84,1.91,1.69,3.93,2.54,6.06s1.72,4.4,2.61,6.8c.89,2.41,1.83,5.03,2.83,7.87h-6.35ZM101.82,32.71c-.13.38-.33.9-.58,1.56s-.54,1.42-.87,2.28c-.33.86-.69,1.81-1.09,2.85-.4,1.04-.81,2.12-1.23,3.26h7.53c-.4-1.14-.79-2.23-1.17-3.27-.38-1.04-.74-1.99-1.08-2.86-.34-.86-.64-1.62-.89-2.28-.26-.66-.46-1.17-.62-1.55Z" fill="#fff"/><path d="M141.74,39.9c0,2.28-.36,4.27-1.06,5.97s-1.72,3.1-3.02,4.22c-1.31,1.12-2.89,1.95-4.77,2.51s-3.98.84-6.31.84c-1.06,0-2.31-.04-3.72-.13-1.42-.09-2.81-.27-4.18-.55v-25.65c1.37-.25,2.79-.42,4.28-.51,1.48-.09,2.75-.13,3.82-.13,2.25,0,4.3.25,6.14.76,1.84.51,3.41,1.3,4.73,2.39,1.32,1.09,2.33,2.48,3.04,4.18s1.06,3.74,1.06,6.12ZM124.6,48.26c.28.03.6.04.97.06.37.01.8.02,1.31.02,2.96,0,5.16-.75,6.59-2.24,1.43-1.49,2.15-3.56,2.15-6.19s-.68-4.85-2.05-6.27c-1.37-1.42-3.53-2.13-6.5-2.13-.41,0-.82,0-1.25.02-.43.01-.84.04-1.22.1v16.64Z" fill="#fff"/><path d="M155.46,53.42c-1.44,0-2.88-.04-4.31-.13s-2.92-.3-4.46-.63v-25.54c1.22-.23,2.55-.4,3.99-.51s2.79-.17,4.03-.17c1.67,0,3.21.12,4.62.36,1.41.24,2.62.65,3.63,1.24,1.01.58,1.8,1.35,2.38,2.3.57.95.85,2.12.85,3.52,0,2.1-1.01,3.76-3.04,4.98,1.67.63,2.81,1.5,3.42,2.58.61,1.09.91,2.32.91,3.69,0,2.76-1.01,4.84-3.02,6.23-2.01,1.39-5.01,2.09-8.99,2.09ZM152.46,37.08h2.89c1.82,0,3.13-.23,3.91-.7s1.18-1.22,1.18-2.26-.41-1.81-1.22-2.24c-.81-.43-2-.65-3.57-.65-.51,0-1.05,0-1.63.02s-1.1.04-1.56.09v5.74ZM152.46,41.61v6.8c.43.05.9.09,1.41.11.51.03,1.06.04,1.67.04,1.77,0,3.2-.25,4.29-.76,1.09-.51,1.63-1.44,1.63-2.81,0-1.22-.46-2.08-1.37-2.6-.91-.52-2.22-.78-3.91-.78h-3.72Z" fill="#fff"/></g></g><g id="Automator" isolation="isolate"><g isolation="isolate"><path d="M200.52,53.08c-.53-1.36-1.01-2.67-1.46-3.93s-.87-2.48-1.27-3.67h-13.54c-.46,1.2-.92,2.42-1.36,3.68-.44,1.26-.91,2.56-1.41,3.92h-2.84c1.05-2.89,2.05-5.57,2.98-8.07s1.86-4.85,2.75-7.07c.9-2.22,1.79-4.36,2.68-6.41.89-2.05,1.82-4.11,2.8-6.17h2.4c.98,2.05,1.91,4.11,2.78,6.16s1.77,4.19,2.67,6.42c.9,2.22,1.82,4.58,2.75,7.08.93,2.5,1.95,5.18,3.06,8.07h-3ZM190.98,28.48c-1,2.3-1.98,4.64-2.93,7.01-.95,2.37-1.93,4.93-2.95,7.67h11.83c-1.02-2.75-2.02-5.31-2.99-7.68-.97-2.37-1.96-4.71-2.96-7Z" fill="#fff"/><path d="M223.2,52.36c-.77.21-1.81.45-3.12.72-1.31.27-2.91.4-4.8.4-1.55,0-2.84-.23-3.88-.68s-1.88-1.09-2.52-1.92c-.64-.83-1.1-1.83-1.38-3-.28-1.17-.42-2.47-.42-3.88v-11.6h2.6v10.76c0,1.47.11,2.71.32,3.72.21,1.01.56,1.83,1.04,2.46.48.63,1.1,1.08,1.86,1.36s1.69.42,2.78.42c1.23,0,2.29-.07,3.2-.2.91-.13,1.48-.25,1.72-.36v-18.16h2.6v19.96Z" fill="#fff"/><path d="M232.52,32.4h8.24v2.2h-8.24v11c0,1.17.1,2.13.3,2.86.2.73.49,1.3.86,1.7.37.4.83.67,1.36.8.53.13,1.12.2,1.76.2,1.09,0,1.97-.13,2.64-.38.67-.25,1.19-.49,1.56-.7l.64,2.16c-.37.24-1.03.51-1.96.82-.93.31-1.95.46-3.04.46-1.28,0-2.35-.17-3.22-.5-.87-.33-1.56-.84-2.08-1.52-.52-.68-.89-1.53-1.1-2.54-.21-1.01-.32-2.21-.32-3.6v-19.04l2.6-.48v6.56Z" fill="#fff"/><path d="M263.2,42.76c0,1.63-.23,3.11-.7,4.44-.47,1.33-1.12,2.47-1.96,3.4-.84.93-1.83,1.66-2.98,2.18-1.15.52-2.41.78-3.8.78s-2.65-.26-3.8-.78c-1.15-.52-2.14-1.25-2.98-2.18-.84-.93-1.49-2.07-1.96-3.4-.47-1.33-.7-2.81-.7-4.44s.23-3.11.7-4.44c.47-1.33,1.12-2.47,1.96-3.42.84-.95,1.83-1.68,2.98-2.2,1.15-.52,2.41-.78,3.8-.78s2.65.26,3.8.78c1.15.52,2.14,1.25,2.98,2.2s1.49,2.09,1.96,3.42c.47,1.33.7,2.81.7,4.44ZM260.44,42.76c0-2.59-.6-4.65-1.8-6.18-1.2-1.53-2.83-2.3-4.88-2.3s-3.68.77-4.88,2.3c-1.2,1.53-1.8,3.59-1.8,6.18s.6,4.64,1.8,6.16c1.2,1.52,2.83,2.28,4.88,2.28s3.68-.76,4.88-2.28c1.2-1.52,1.8-3.57,1.8-6.16Z" fill="#fff"/><path d="M268.84,33.12c.77-.21,1.78-.45,3.02-.72s2.85-.4,4.82-.4c2.61,0,4.51.76,5.68,2.28.13-.11.39-.29.78-.54.39-.25.87-.51,1.46-.78.59-.27,1.27-.49,2.06-.68.79-.19,1.66-.28,2.62-.28,1.57,0,2.85.23,3.82.7.97.47,1.73,1.12,2.26,1.96.53.84.89,1.85,1.08,3.02.19,1.17.28,2.45.28,3.84v11.56h-2.6v-10.72c0-1.36-.06-2.54-.18-3.54s-.36-1.83-.72-2.48c-.36-.65-.87-1.15-1.54-1.48-.67-.33-1.53-.5-2.6-.5-.8,0-1.53.07-2.18.22-.65.15-1.22.33-1.7.54-.48.21-.87.43-1.18.64-.31.21-.53.37-.66.48.24.69.42,1.47.54,2.34.12.87.18,1.78.18,2.74v11.76h-2.6v-10.72c0-1.36-.06-2.54-.18-3.54s-.37-1.83-.74-2.48c-.37-.65-.9-1.15-1.58-1.48-.68-.33-1.58-.5-2.7-.5-1.25,0-2.31.07-3.18.2-.87.13-1.42.25-1.66.36v18.16h-2.6v-19.96Z" fill="#fff"/><path d="M309.64,31.92c1.36,0,2.51.19,3.46.58.95.39,1.71.92,2.3,1.6.59.68,1.01,1.49,1.28,2.42s.4,1.95.4,3.04v13.04c-.27.08-.65.17-1.16.26-.51.09-1.09.19-1.76.3-.67.11-1.41.19-2.22.26s-1.65.1-2.5.1c-1.09,0-2.1-.12-3.02-.36s-1.72-.62-2.4-1.14c-.68-.52-1.21-1.19-1.6-2-.39-.81-.58-1.81-.58-2.98s.21-2.08.64-2.88,1.03-1.46,1.8-1.98c.77-.52,1.69-.9,2.76-1.14,1.07-.24,2.23-.36,3.48-.36.37,0,.77.02,1.18.06.41.04.81.09,1.2.16s.72.13,1,.2c.28.07.47.13.58.18v-1.28c0-.72-.05-1.42-.16-2.1-.11-.68-.34-1.29-.7-1.84-.36-.55-.87-.99-1.52-1.32-.65-.33-1.51-.5-2.58-.5-1.52,0-2.65.11-3.4.32-.75.21-1.29.39-1.64.52l-.36-2.28c.45-.21,1.15-.41,2.1-.6.95-.19,2.09-.28,3.42-.28ZM309.88,51.2c1.01,0,1.9-.03,2.66-.1.76-.07,1.41-.15,1.94-.26v-7.28c-.29-.13-.76-.27-1.4-.42-.64-.15-1.52-.22-2.64-.22-.64,0-1.31.05-2,.14s-1.33.29-1.92.6c-.59.31-1.07.73-1.44,1.26-.37.53-.56,1.24-.56,2.12,0,.77.13,1.43.38,1.96.25.53.61.96,1.08,1.28.47.32,1.03.55,1.68.7.65.15,1.39.22,2.22.22Z" fill="#fff"/><path d="M326.16,32.4h8.24v2.2h-8.24v11c0,1.17.1,2.13.3,2.86s.49,1.3.86,1.7c.37.4.83.67,1.36.8.53.13,1.12.2,1.76.2,1.09,0,1.97-.13,2.64-.38.67-.25,1.19-.49,1.56-.7l.64,2.16c-.37.24-1.03.51-1.96.82-.93.31-1.95.46-3.04.46-1.28,0-2.35-.17-3.22-.5-.87-.33-1.56-.84-2.08-1.52-.52-.68-.89-1.53-1.1-2.54-.21-1.01-.32-2.21-.32-3.6v-19.04l2.6-.48v6.56Z" fill="#fff"/><path d="M356.84,42.76c0,1.63-.23,3.11-.7,4.44-.47,1.33-1.12,2.47-1.96,3.4-.84.93-1.83,1.66-2.98,2.18-1.15.52-2.41.78-3.8.78s-2.65-.26-3.8-.78c-1.15-.52-2.14-1.25-2.98-2.18-.84-.93-1.49-2.07-1.96-3.4-.47-1.33-.7-2.81-.7-4.44s.23-3.11.7-4.44c.47-1.33,1.12-2.47,1.96-3.42s1.83-1.68,2.98-2.2c1.15-.52,2.41-.78,3.8-.78s2.65.26,3.8.78c1.15.52,2.14,1.25,2.98,2.2s1.49,2.09,1.96,3.42c.47,1.33.7,2.81.7,4.44ZM354.08,42.76c0-2.59-.6-4.65-1.8-6.18-1.2-1.53-2.83-2.3-4.88-2.3s-3.68.77-4.88,2.3c-1.2,1.53-1.8,3.59-1.8,6.18s.6,4.64,1.8,6.16c1.2,1.52,2.83,2.28,4.88,2.28s3.68-.76,4.88-2.28c1.2-1.52,1.8-3.57,1.8-6.16Z" fill="#fff"/><path d="M369.52,32c.85,0,1.66.07,2.42.2.76.13,1.29.27,1.58.4l-.52,2.24c-.21-.11-.65-.22-1.3-.34s-1.51-.18-2.58-.18c-1.12,0-2.02.08-2.7.24-.68.16-1.13.29-1.34.4v18.12h-2.6v-19.72c.67-.29,1.59-.59,2.76-.9,1.17-.31,2.6-.46,4.28-.46Z" fill="#fff"/></g></g></g></g><g id="Path_90"><path d="M19.48,52.53c.38-7.13,5.21-14.07,11.5-17.3.37-.52-3.3-5.31-3.54-6.38-.27-1.2,1.18-1.45,1.9-.83.65.58,3.18,6.23,3.54,6.23,5.93-2.58,12.67-2.62,18.63-.09.7-.11,2.84-5.28,3.71-6.01.99-.82,2.16-.31,1.72,1.02-.29.86-3.79,5.79-3.58,6.08,6.62,3.32,11,9.89,11.51,17.28H19.48ZM31.22,42.43c-2.04.71-1.17,5.51,2.06,4.09,2.73-1.2,1.07-5.19-2.06-4.09M51.22,42.44c-1.85.55-1.69,3.85.35,4.27,3.86.8,3.7-5.47-.35-4.27" fill="#fff"/></g><g id="Path_92"><path d="M28.28,13.59c.53.53-.12.58-.47.71-1.99.73-9.1,1.8-10.19,3.02-.96,1.08-2.83,10.48-3.4,10.48-1.44-2.29-1.79-8.63-3.53-10.35-1.64-1.61-9.99-2.68-10.52-3.2-.45-.44.08-.59.43-.75,2.08-.94,8.69-1.76,9.98-3.06C12.06,8.96,13.35.02,13.89.03c.6.01.67.38.87.83.9,2.05,1.67,8.21,3.04,9.49,1.71,1.6,9.8,2.55,10.48,3.24" fill="#fff"/></g><g id="Path_94"><path d="M77.73,15.62c.52.53-.12.58-.47.71-1.25.46-3.77.59-4.62,1.47-1.07,1.11-.88,4.01-1.85,5.26-.65,0-1.3-4.69-1.94-5.33-.71-.71-5.07-1.18-5.34-1.44-.58-.56.18-.57.48-.71.98-.44,4.52-1.06,4.87-1.4.54-.52,1.29-4.34,1.43-5.34,1.87.42,1.07,4.12,2.38,5.24.87.74,4.7,1.16,5.07,1.54" fill="#fff"/></g><g id="Path_95"><path d="M.58,32.55c1.77-1.87,5.68.33,3.8,2.95-2.15,2.99-5.8-.83-3.8-2.95" fill="#fff"/></g><g id="Path_96"><path d="M32.93.1c4.24-.97,4.24,5.23,0,4.26-1.18-.33-1.86-1.55-1.53-2.73.21-.74.79-1.32,1.53-1.53" fill="#fff"/></g></g></svg>